<?xml version="1.0" encoding="UTF-8"?>
<!DOCTYPE svg PUBLIC "-//W3C//DTD SVG 1.1//EN" "http://www.w3.org/Graphics/SVG/1.1/DTD/svg11.dtd">
<!-- Creator: CorelDRAW 2020 (64 Bit) -->
<svg xmlns="http://www.w3.org/2000/svg" xml:space="preserve" width="297mm" height="207.057mm" version="1.1" style="shape-rendering:geometricPrecision; text-rendering:geometricPrecision; image-rendering:optimizeQuality; fill-rule:evenodd; clip-rule:evenodd"
viewBox="0 0 29700 20705.68"
 xmlns:xlink="http://www.w3.org/1999/xlink"
 xmlns:xodm="http://www.corel.com/coreldraw/odm/2003">
 <defs>
  <style type="text/css">
   <![CDATA[
    .fil2 {fill:black}
    .fil0 {fill:#020202}
    .fil5 {fill:#080705}
    .fil4 {fill:#4B333C}
    .fil6 {fill:#A1756A}
    .fil3 {fill:#E9B7BE}
    .fil1 {fill:white}
    .fil7 {fill:#171717;fill-rule:nonzero}
    .fil8 {fill:#EB423F;fill-rule:nonzero}
   ]]>
  </style>
   <clipPath id="id0">
    <rect x="-235890.71" y="-40178.3" width="48189.44" height="120967.52"/>
   </clipPath>
   <clipPath id="id1">
    <rect x="-180694.79" y="-41576.06" width="48189.44" height="94544.46"/>
   </clipPath>
   <clipPath id="id2">
    <rect x="-119311.44" y="-43692.72" width="48189.44" height="94544.46"/>
   </clipPath>
   <clipPath id="id3">
    <rect x="28117.19" y="-72620.39" width="20705.46" height="24691.3"/>
   </clipPath>
   <clipPath id="id4">
    <rect x="5362.99" y="-73255.39" width="20705.5" height="24691.3"/>
   </clipPath>
   <clipPath id="id5">
    <rect x="52140.37" y="-71704.74" width="4832.44" height="5749.54"/>
   </clipPath>
   <clipPath id="id6">
    <rect x="51717.03" y="-64419.51" width="4832.44" height="5749.54"/>
   </clipPath>
   <clipPath id="id7">
    <rect x="51717.03" y="-54259.51" width="4832.44" height="5749.54"/>
   </clipPath>
   <clipPath id="id8">
    <rect x="61030.37" y="-71192.85" width="4832.44" height="5749.54"/>
   </clipPath>
   <clipPath id="id9">
    <rect x="-35.34" y="-64631.16" width="4832.4" height="5749.5"/>
   </clipPath>
   <clipPath id="id10">
    <rect x="194.29" y="-74050.33" width="4832.4" height="5749.5"/>
   </clipPath>
   <clipPath id="id11">
    <rect x="705.5" y="-55846.98" width="4832.4" height="5749.5"/>
   </clipPath>
   <clipPath id="id12">
    <rect x="5343.92" y="-98260.26" width="20705.5" height="24691.3"/>
   </clipPath>
   <clipPath id="id13">
    <rect x="-564.57" y="-97651.17" width="4832.4" height="5749.5"/>
   </clipPath>
   <clipPath id="id14">
    <rect x="-35.41" y="-90242.83" width="4832.4" height="5749.5"/>
   </clipPath>
   <clipPath id="id15">
    <rect x="-141.24" y="-83257.82" width="4832.4" height="5749.5"/>
   </clipPath>
   <clipPath id="id16">
    <rect x="4728.05" y="-125117.98" width="20705.5" height="24691.3"/>
   </clipPath>
   <clipPath id="id17">
    <rect x="-458.75" y="-108622.63" width="4832.4" height="4832.4"/>
   </clipPath>
   <clipPath id="id18">
    <rect x="-352.92" y="-116595.35" width="4832.4" height="5749.5"/>
   </clipPath>
   <clipPath id="id19">
    <rect x="-247.09" y="-123686.18" width="4832.4" height="5749.5"/>
   </clipPath>
   <clipPath id="id20">
    <rect x="4040.16" y="-152154.15" width="20705.5" height="24691.3"/>
   </clipPath>
   <clipPath id="id21">
    <rect x="2664.3" y="-177765.84" width="20705.51" height="24691.3"/>
   </clipPath>
   <clipPath id="id22">
    <rect x="3214.69" y="-203377.48" width="20705.5" height="24691.3"/>
   </clipPath>
   <clipPath id="id23">
    <rect x="3881.51" y="-233539.97" width="20705.5" height="24691.3"/>
   </clipPath>
   <clipPath id="id24">
    <rect x="3458.17" y="-265358.96" width="20705.5" height="24691.3"/>
   </clipPath>
   <clipPath id="id25">
    <rect x="3204.18" y="-295008.03" width="20705.5" height="24691.3"/>
   </clipPath>
   <clipPath id="id26">
    <rect x="2380.92" y="-328451.36" width="20705.5" height="24691.3"/>
   </clipPath>
   <clipPath id="id27">
    <rect x="2738.48" y="-357531.16" width="20705.49" height="20705.5"/>
   </clipPath>
   <clipPath id="id28">
    <rect x="1045.18" y="-382931.15" width="20705.5" height="20705.5"/>
   </clipPath>
   <clipPath id="id29">
    <rect x="29652.08" y="-99449.07" width="20705.5" height="24691.3"/>
   </clipPath>
   <clipPath id="id30">
    <rect x="28242.38" y="-123579.09" width="20705.5" height="24691.3"/>
   </clipPath>
   <clipPath id="id31">
    <rect x="29652.08" y="-146807.39" width="20705.5" height="24691.3"/>
   </clipPath>
   <clipPath id="id32">
    <rect x="29228.74" y="-174802.46" width="20705.5" height="24691.3"/>
   </clipPath>
   <clipPath id="id33">
    <rect x="27535.41" y="-207891.44" width="20705.5" height="24691.3"/>
   </clipPath>
   <clipPath id="id34">
    <rect x="27535.42" y="-235762.48" width="20705.5" height="24691.3"/>
   </clipPath>
   <clipPath id="id35">
    <rect x="29228.75" y="-263279.16" width="20705.5" height="24691.3"/>
   </clipPath>
   <clipPath id="id36">
    <rect x="27535.42" y="-293759.17" width="20705.5" height="24691.3"/>
   </clipPath>
   <clipPath id="id37">
    <rect x="29651.89" y="-327202.52" width="20705.5" height="24691.3"/>
   </clipPath>
   <clipPath id="id38">
    <rect x="26775.67" y="-359236.33" width="22225" height="26105.56"/>
   </clipPath>
   <clipPath id="id39">
    <rect x="30498.75" y="-388162.55" width="20705.5" height="24691.3"/>
   </clipPath>
   <clipPath id="id40">
    <rect x="30498.75" y="-418713.12" width="20705.5" height="24691.3"/>
   </clipPath>
   <clipPath id="id41">
    <rect x="73678.67" y="-71509.02" width="20705.7" height="24691.2"/>
   </clipPath>
   <clipPath id="id42">
    <rect x="69445.34" y="-105799.03" width="20705.7" height="24691.2"/>
   </clipPath>
   <clipPath id="id43">
    <rect x="70908.16" y="-138395.7" width="20705.7" height="24691.2"/>
   </clipPath>
   <clipPath id="id44">
    <rect x="71138.67" y="-170992.4" width="20705.7" height="24691.2"/>
   </clipPath>
   <clipPath id="id45">
    <rect x="73678.67" y="-204435.74" width="20705.7" height="24691.2"/>
   </clipPath>
   <clipPath id="id46">
    <rect x="74102" y="-230936.43" width="20705.7" height="24691.2"/>
   </clipPath>
   <clipPath id="id47">
    <rect x="74102" y="-261162.44" width="20705.7" height="24691.2"/>
   </clipPath>
   <clipPath id="id48">
    <rect x="74102" y="-294605.79" width="20705.7" height="24691.2"/>
   </clipPath>
   <clipPath id="id49">
    <rect x="75499" y="-325763.14" width="20705.7" height="24691.2"/>
   </clipPath>
   <clipPath id="id50">
    <rect x="74398.34" y="-360122.09" width="20705.7" height="24691.2"/>
   </clipPath>
   <clipPath id="id51">
    <rect x="75371.91" y="-386638.5" width="20705.7" height="24691.2"/>
   </clipPath>
   <clipPath id="id52">
    <rect x="78358.75" y="-420420.58" width="20705.7" height="24691.2"/>
   </clipPath>
   <clipPath id="id53">
    <rect x="-120858.73" y="-74384.72" width="55026.44" height="11816.56"/>
   </clipPath>
   <clipPath id="id54">
    <rect x="-123576.71" y="-93345.61" width="55026.4" height="11816.6"/>
   </clipPath>
   <clipPath id="id55">
    <rect x="-191399.4" y="-98506.72" width="2540" height="3711.79"/>
   </clipPath>
   <clipPath id="id56">
    <rect x="-190976.07" y="-93804.7" width="13227.5" height="19329.8"/>
   </clipPath>
   <clipPath id="id57">
    <rect x="-122730.03" y="-120686.91" width="55026.4" height="11816.6"/>
   </clipPath>
   <clipPath id="id58">
    <rect x="-280989.55" y="-70339.51" width="47885.91" height="21971.51"/>
   </clipPath>
   <clipPath id="id59">
    <rect x="-126966.65" y="-138080.52" width="60722.93" height="12014.2"/>
   </clipPath>
   <clipPath id="id60">
    <rect x="-274578.81" y="-109852.26" width="47885.9" height="21971.5"/>
   </clipPath>
   <clipPath id="id61">
    <rect x="128429.11" y="-2065.79" width="11430.01" height="10742.09"/>
   </clipPath>
   <clipPath id="id62">
    <rect x="81544.89" y="-12437.44" width="19896.66" height="19896.66"/>
   </clipPath>
   <clipPath id="id63">
    <rect x="139841.76" y="-26971.74" width="2292.76" height="2292.76"/>
   </clipPath>
   <clipPath id="id64">
    <rect x="139841.66" y="-36584.86" width="3209.86" height="3209.86"/>
   </clipPath>
   <clipPath id="id65">
    <rect x="12982.35" y="-33137.34" width="18619.48" height="18619.48"/>
   </clipPath>
   <clipPath id="id66">
    <rect x="15581.22" y="-28302.18" width="13470.96" height="8456.57"/>
   </clipPath>
   <clipPath id="id67">
    <rect x="-11176.53" y="-40624.95" width="18618.2" height="18618.2"/>
   </clipPath>
     <clipPath id="id68" style="clip-rule:nonzero">
      <path d="M32746.51 -189.64l1719.78 0 0 -1719.78 -1719.78 0 0 1719.78z"/>
     </clipPath>
   <clipPath id="id69">
    <rect x="40859.23" y="-2097.39" width="6618.5" height="1719.8"/>
   </clipPath>
 </defs>
 <g id="Camada_x0020_1">
  <metadata id="CorelCorpID_0Corel-Layer"/>
  <g style="clip-path:url(#id0)">
   <image x="-235890.71" y="-40178.3" width="48189.44" height="120967.52" xlink:href="nav-logo_Images\nav-logo_ImgID1.png"/>
  </g>
  <g style="clip-path:url(#id1)">
   <image x="-180694.79" y="-41576.06" width="48189.44" height="94544.46" xlink:href="nav-logo_Images\nav-logo_ImgID2.png"/>
  </g>
  <g style="clip-path:url(#id2)">
   <image x="-119311.44" y="-43692.72" width="48189.44" height="94544.46" xlink:href="nav-logo_Images\nav-logo_ImgID3.png"/>
  </g>
  <g style="clip-path:url(#id3)">
   <image x="28117.19" y="-72620.39" width="20705.46" height="24691.3" xlink:href="nav-logo_Images\nav-logo_ImgID4.png"/>
  </g>
  <g style="clip-path:url(#id4)">
   <image x="5362.99" y="-73255.39" width="20705.5" height="24691.3" xlink:href="nav-logo_Images\nav-logo_ImgID5.png"/>
  </g>
  <g style="clip-path:url(#id5)">
   <image x="52140.37" y="-71704.74" width="4832.44" height="5749.54" xlink:href="nav-logo_Images\nav-logo_ImgID6.png"/>
  </g>
  <g style="clip-path:url(#id6)">
   <image x="51717.03" y="-64419.51" width="4832.44" height="5749.54" xlink:href="nav-logo_Images\nav-logo_ImgID7.png"/>
  </g>
  <g style="clip-path:url(#id7)">
   <image x="51717.03" y="-54259.51" width="4832.44" height="5749.54" xlink:href="nav-logo_Images\nav-logo_ImgID8.png"/>
  </g>
  <g style="clip-path:url(#id8)">
   <image x="61030.37" y="-71192.85" width="4832.44" height="5749.54" xlink:href="nav-logo_Images\nav-logo_ImgID9.png"/>
  </g>
  <g style="clip-path:url(#id9)">
   <image x="-35.34" y="-64631.16" width="4832.4" height="5749.5" xlink:href="nav-logo_Images\nav-logo_ImgID10.png"/>
  </g>
  <g style="clip-path:url(#id10)">
   <image x="194.29" y="-74050.33" width="4832.4" height="5749.5" xlink:href="nav-logo_Images\nav-logo_ImgID11.png"/>
  </g>
  <g style="clip-path:url(#id11)">
   <image x="705.5" y="-55846.98" width="4832.4" height="5749.5" xlink:href="nav-logo_Images\nav-logo_ImgID12.png"/>
  </g>
  <g style="clip-path:url(#id12)">
   <image x="5343.92" y="-98260.26" width="20705.5" height="24691.3" xlink:href="nav-logo_Images\nav-logo_ImgID13.png"/>
  </g>
  <g style="clip-path:url(#id13)">
   <image x="-564.57" y="-97651.17" width="4832.4" height="5749.5" xlink:href="nav-logo_Images\nav-logo_ImgID14.png"/>
  </g>
  <g style="clip-path:url(#id14)">
   <image x="-35.41" y="-90242.83" width="4832.4" height="5749.5" xlink:href="nav-logo_Images\nav-logo_ImgID15.png"/>
  </g>
  <g style="clip-path:url(#id15)">
   <image x="-141.24" y="-83257.82" width="4832.4" height="5749.5" xlink:href="nav-logo_Images\nav-logo_ImgID16.png"/>
  </g>
  <g style="clip-path:url(#id16)">
   <image x="4728.05" y="-125117.98" width="20705.5" height="24691.3" xlink:href="nav-logo_Images\nav-logo_ImgID17.png"/>
  </g>
  <g style="clip-path:url(#id17)">
   <image x="-458.75" y="-108622.63" width="4832.4" height="4832.4" xlink:href="nav-logo_Images\nav-logo_ImgID18.png"/>
  </g>
  <g style="clip-path:url(#id18)">
   <image x="-352.92" y="-116595.35" width="4832.4" height="5749.5" xlink:href="nav-logo_Images\nav-logo_ImgID19.png"/>
  </g>
  <g style="clip-path:url(#id19)">
   <image x="-247.09" y="-123686.18" width="4832.4" height="5749.5" xlink:href="nav-logo_Images\nav-logo_ImgID20.png"/>
  </g>
  <g style="clip-path:url(#id20)">
   <image x="4040.16" y="-152154.15" width="20705.5" height="24691.3" xlink:href="nav-logo_Images\nav-logo_ImgID21.png"/>
  </g>
  <g style="clip-path:url(#id21)">
   <image x="2664.3" y="-177765.84" width="20705.51" height="24691.3" xlink:href="nav-logo_Images\nav-logo_ImgID22.png"/>
  </g>
  <g style="clip-path:url(#id22)">
   <image x="3214.69" y="-203377.48" width="20705.5" height="24691.3" xlink:href="nav-logo_Images\nav-logo_ImgID23.png"/>
  </g>
  <g style="clip-path:url(#id23)">
   <image x="3881.51" y="-233539.97" width="20705.5" height="24691.3" xlink:href="nav-logo_Images\nav-logo_ImgID24.png"/>
  </g>
  <g style="clip-path:url(#id24)">
   <image x="3458.17" y="-265358.96" width="20705.5" height="24691.3" xlink:href="nav-logo_Images\nav-logo_ImgID25.png"/>
  </g>
  <g style="clip-path:url(#id25)">
   <image x="3204.18" y="-295008.03" width="20705.5" height="24691.3" xlink:href="nav-logo_Images\nav-logo_ImgID26.png"/>
  </g>
  <g style="clip-path:url(#id26)">
   <image x="2380.92" y="-328451.36" width="20705.5" height="24691.3" xlink:href="nav-logo_Images\nav-logo_ImgID27.png"/>
  </g>
  <g style="clip-path:url(#id27)">
   <image x="2738.48" y="-357531.16" width="20705.48" height="20705.5" xlink:href="nav-logo_Images\nav-logo_ImgID28.png"/>
  </g>
  <g style="clip-path:url(#id28)">
   <image x="1045.18" y="-382931.15" width="20705.5" height="20705.5" xlink:href="nav-logo_Images\nav-logo_ImgID29.png"/>
  </g>
  <g style="clip-path:url(#id29)">
   <image x="29652.08" y="-99449.07" width="20705.5" height="24691.3" xlink:href="nav-logo_Images\nav-logo_ImgID30.png"/>
  </g>
  <g style="clip-path:url(#id30)">
   <image x="28242.38" y="-123579.09" width="20705.5" height="24691.3" xlink:href="nav-logo_Images\nav-logo_ImgID31.png"/>
  </g>
  <g style="clip-path:url(#id31)">
   <image x="29652.08" y="-146807.39" width="20705.5" height="24691.3" xlink:href="nav-logo_Images\nav-logo_ImgID32.png"/>
  </g>
  <g style="clip-path:url(#id32)">
   <image x="29228.74" y="-174802.46" width="20705.5" height="24691.3" xlink:href="nav-logo_Images\nav-logo_ImgID33.png"/>
  </g>
  <g style="clip-path:url(#id33)">
   <image x="27535.41" y="-207891.44" width="20705.5" height="24691.3" xlink:href="nav-logo_Images\nav-logo_ImgID34.png"/>
  </g>
  <g style="clip-path:url(#id34)">
   <image x="27535.42" y="-235762.48" width="20705.5" height="24691.3" xlink:href="nav-logo_Images\nav-logo_ImgID35.png"/>
  </g>
  <g style="clip-path:url(#id35)">
   <image x="29228.75" y="-263279.16" width="20705.5" height="24691.3" xlink:href="nav-logo_Images\nav-logo_ImgID36.png"/>
  </g>
  <g style="clip-path:url(#id36)">
   <image x="27535.42" y="-293759.17" width="20705.5" height="24691.3" xlink:href="nav-logo_Images\nav-logo_ImgID37.png"/>
  </g>
  <g style="clip-path:url(#id37)">
   <image x="29651.89" y="-327202.52" width="20705.5" height="24691.3" xlink:href="nav-logo_Images\nav-logo_ImgID38.png"/>
  </g>
  <g style="clip-path:url(#id38)">
   <image x="26775.67" y="-359236.33" width="22225" height="26105.56" xlink:href="nav-logo_Images\nav-logo_ImgID39.png"/>
  </g>
  <g style="clip-path:url(#id39)">
   <image x="30498.75" y="-388162.55" width="20705.5" height="24691.3" xlink:href="nav-logo_Images\nav-logo_ImgID40.png"/>
  </g>
  <g style="clip-path:url(#id40)">
   <image x="30498.75" y="-418713.12" width="20705.5" height="24691.3" xlink:href="nav-logo_Images\nav-logo_ImgID41.png"/>
  </g>
  <g style="clip-path:url(#id41)">
   <image x="73678.67" y="-71509.02" width="20705.7" height="24691.2" xlink:href="nav-logo_Images\nav-logo_ImgID42.png"/>
  </g>
  <g style="clip-path:url(#id42)">
   <image x="69445.34" y="-105799.03" width="20705.7" height="24691.2" xlink:href="nav-logo_Images\nav-logo_ImgID43.png"/>
  </g>
  <g style="clip-path:url(#id43)">
   <image x="70908.16" y="-138395.7" width="20705.7" height="24691.2" xlink:href="nav-logo_Images\nav-logo_ImgID44.png"/>
  </g>
  <g style="clip-path:url(#id44)">
   <image x="71138.67" y="-170992.4" width="20705.7" height="24691.2" xlink:href="nav-logo_Images\nav-logo_ImgID45.png"/>
  </g>
  <g style="clip-path:url(#id45)">
   <image x="73678.67" y="-204435.74" width="20705.7" height="24691.2" xlink:href="nav-logo_Images\nav-logo_ImgID46.png"/>
  </g>
  <g style="clip-path:url(#id46)">
   <image x="74102" y="-230936.43" width="20705.7" height="24691.2" xlink:href="nav-logo_Images\nav-logo_ImgID47.png"/>
  </g>
  <g style="clip-path:url(#id47)">
   <image x="74102" y="-261162.44" width="20705.7" height="24691.2" xlink:href="nav-logo_Images\nav-logo_ImgID48.png"/>
  </g>
  <g style="clip-path:url(#id48)">
   <image x="74102" y="-294605.79" width="20705.7" height="24691.2" xlink:href="nav-logo_Images\nav-logo_ImgID49.png"/>
  </g>
  <g style="clip-path:url(#id49)">
   <image x="75499" y="-325763.14" width="20705.7" height="24691.2" xlink:href="nav-logo_Images\nav-logo_ImgID50.png"/>
  </g>
  <g style="clip-path:url(#id50)">
   <image x="74398.34" y="-360122.09" width="20705.7" height="24691.2" xlink:href="nav-logo_Images\nav-logo_ImgID51.png"/>
  </g>
  <g style="clip-path:url(#id51)">
   <image x="75371.91" y="-386638.5" width="20705.7" height="24691.2" xlink:href="nav-logo_Images\nav-logo_ImgID52.png"/>
  </g>
  <g style="clip-path:url(#id52)">
   <image x="78358.75" y="-420420.58" width="20705.7" height="24691.2" xlink:href="nav-logo_Images\nav-logo_ImgID53.png"/>
  </g>
  <g style="clip-path:url(#id53)">
   <image x="-120858.73" y="-74384.72" width="55026.44" height="11816.56" xlink:href="nav-logo_Images\nav-logo_ImgID54.png"/>
  </g>
  <g style="clip-path:url(#id54)">
   <image x="-123576.71" y="-93345.61" width="55026.4" height="11816.6" xlink:href="nav-logo_Images\nav-logo_ImgID55.png"/>
  </g>
  <g style="clip-path:url(#id55)">
   <image x="-191399.4" y="-98506.72" width="2540" height="3711.79" xlink:href="nav-logo_Images\nav-logo_ImgID56.png"/>
  </g>
  <g style="clip-path:url(#id56)">
   <image x="-190976.07" y="-93804.7" width="13227.5" height="19329.8" xlink:href="nav-logo_Images\nav-logo_ImgID57.png"/>
  </g>
  <g style="clip-path:url(#id57)">
   <image x="-122730.03" y="-120686.91" width="55026.4" height="11816.6" xlink:href="nav-logo_Images\nav-logo_ImgID58.png"/>
  </g>
  <g style="clip-path:url(#id58)">
   <image x="-280989.55" y="-70339.51" width="47885.91" height="21971.51" xlink:href="nav-logo_Images\nav-logo_ImgID59.png"/>
  </g>
  <g style="clip-path:url(#id59)">
   <image x="-126966.65" y="-138080.52" width="60722.93" height="12014.2" xlink:href="nav-logo_Images\nav-logo_ImgID60.png"/>
  </g>
  <g style="clip-path:url(#id60)">
   <image transform="matrix(-0.998085 -0 -0 0.778518 -226693 -109852)" x="0" y="0" width="47977.78" height="28222.22" xlink:href="nav-logo_Images\nav-logo_ImgID61.png"/>
  </g>
  <g style="clip-path:url(#id61)">
   <image x="128429.11" y="-2065.79" width="11430.01" height="10742.09" xlink:href="nav-logo_Images\nav-logo_ImgID62.png"/>
  </g>
  <g id="_188994431312">
   <path class="fil0" d="M117604.11 -935.3c-142.64,299.85 -250.55,591.03 -499.66,755.21 -242.69,159.94 -643.82,253.49 -733.77,527.95 -44.86,136.9 64.07,138.56 -326.59,275.61 -285.46,100.14 -609.31,261.7 -834.31,437.2 -162.65,126.86 -263.59,135.44 -233.87,395.62 1095.57,699.59 2168.8,456.34 2268.32,975.47 1.25,6.5 2.16,17.55 3.34,23.84 1.18,6.3 3.3,18.03 4.42,23.72l11.7 46.9c162.95,20.89 274.39,55.38 376.56,140.47 68.4,56.95 77.19,71.47 131.35,148.74 85.79,122.39 5.96,88.22 146.17,142.74 304.83,105.28 810.86,-590.7 1200.9,413.31 65.57,168.79 204.94,256.11 332.24,337.3l169.89 -175.68c98.32,978.23 -501.7,1064.02 9.96,2746.95 120.46,396.23 229.96,830.74 383.31,1205.88 86.7,212.09 103.29,334.78 370.85,393.97 262.16,57.99 545,-22.05 793.82,34.41 -34.02,-213.6 -41.73,3.64 -290.57,-153.2 31.85,-23.76 -5.56,-5.23 71.56,-41.49l219.97 -77.57c5.66,-8.24 15.18,-29.89 18.32,-23.76l54.53 -65.61c4.84,-6.3 11.29,-14.42 16.13,-20.97l119.47 -147.66c-737.52,-217.3 -1208.31,1102.78 -1307.68,-2088.67 -9.91,-318.33 276.83,-1474.4 348.13,-1831.15 70.4,-352.19 212.92,-914.43 121.72,-1315.85 -44.56,-196.11 -146.8,-349.54 -207,-523.41 -210.34,-607.53 -177.24,-1428.26 -312.57,-1914.36 -75.28,-270.41 -332.2,-818.07 -513.41,-895.55 -286.84,-29.95 -231.51,-120.05 -424.83,-153.54 -171.86,-29.78 -330.26,-10.77 -502.57,-46.03 -527.65,40.62 -789.32,-0.4 -985.83,449.21z"/>
   <path class="fil0" d="M116217.51 5196.01l-687.47 191.38c-644.31,137.21 -1444.38,487.75 -1932.4,722.68 -314.2,151.26 -582.39,296.38 -842.64,495.11 -199.1,152.04 -576.62,424.98 -690.23,629.7 -17,265.06 155.73,375.05 257.96,494.89l159.04 26.53 7.2 114.83 -18.81 136.52c211.46,165.89 420.4,310.11 705.56,413.61 752.05,272.96 448.26,91.69 942.55,129.95 278.16,10.59 2257.41,-356.01 2792.58,-412.23 471.68,-49.54 880.79,-225.29 1127.48,-486.21 463.41,-490.13 399.9,-1032.01 424.63,-1123.98 -75.39,-69.54 -18.83,46 -86.99,-115.09 -364.44,0.7 -724.79,-71.24 -1063.82,-14.64 -206.64,34.49 -727.08,172.45 -874.76,145.88 -34.58,-297.13 -1.82,-592.27 86.51,-826.76 43.04,-258.64 19.62,-310.09 5.26,-586.07l-311.65 63.9z"/>
   <path class="fil0" d="M116678.19 4971.32c-68.63,212.7 -68.31,389.32 -4.94,597.27 94.22,69.43 646.91,746.07 1083.55,787.77 191.05,18.24 492.22,-6.12 670.88,-38.88 -39.86,-279.89 44.8,-971.85 86.6,-1247 42.13,-277.36 57.87,-327.74 212.08,-497.52 89.61,-98.66 254.25,-236.51 294.02,-369.07 -340.13,-407.15 -1423.06,-798.88 -1904.41,-640.63 -19.85,272.7 46.58,664.82 -76.14,875.53 -99.33,170.56 -248.89,350.2 -361.64,532.53z"/>
   <path class="fil1" d="M116523.9 5718.18c-88.33,234.49 -121.09,529.63 -86.51,826.76 147.68,26.57 668.12,-111.39 874.76,-145.88 339.03,-56.6 699.38,15.34 1063.82,14.64 68.16,161.09 11.6,45.55 86.99,115.09 -19.56,-187.96 -86.99,-6.64 -35.28,-211.31 -178.66,32.76 -479.83,57.12 -670.88,38.88 -436.64,-41.7 -989.33,-718.34 -1083.55,-787.77l-52.33 -20.57c-8.29,29.07 -20.6,74.99 -30.48,93.93 -82.72,158.67 24.32,-14.32 -66.54,76.23z"/>
   <path class="fil2" d="M114017.95 8600.18c178.75,-32.65 38.1,1.17 100.32,-48.97 -494.29,-38.26 -190.5,143.01 -942.55,-129.95 -285.16,-103.5 -494.1,-247.72 -705.56,-413.61l18.81 -136.52c-58.46,42.03 -26.43,-20.35 -73.16,81.23 -40.12,87.21 -15.59,207.38 -6.21,301.83 63.5,50.96 75.69,35.82 153.41,80.84 6.73,3.9 15.49,9.36 22.2,13.37l134.06 79.7c399.47,224.78 820.3,244.85 1298.68,172.08z"/>
   <path class="fil3" d="M116008.61 1223.65c118.11,137.01 327.23,137.27 564.35,139.71 -69.22,-449.64 100.3,-507.11 220.76,-779.78 -226.29,57.11 -461.39,509.12 -785.11,640.07z"/>
   <path class="fil2" d="M118589.94 -1384.51c172.31,35.26 330.71,16.25 502.57,46.03 193.32,33.49 137.99,123.59 424.83,153.54 -153,-281.75 -577.31,-318.3 -794.76,-269.12 -166.16,37.57 -92.86,36.93 -132.64,69.55z"/>
   <path class="fil2" d="M112322.73 7729.77c-102.23,-119.84 -274.96,-229.83 -257.96,-494.89 -52.38,35.4 -34.84,-29.37 -81.72,78.8 -11.65,26.87 -13.1,65.31 -14.23,94.54 -12.82,332.59 174.77,309.59 353.91,321.55z"/>
   <path class="fil1" d="M116217.51 5196.01l311.65 -63.9c14.36,275.98 37.78,327.43 -5.26,586.07 90.86,-90.55 -16.18,82.44 66.54,-76.23 9.88,-18.94 22.19,-64.86 30.48,-93.93l52.33 20.57c-63.37,-207.95 -63.69,-384.57 4.94,-597.27l-72.6 143.63c-130.59,-24.02 -107.18,-36.39 -222.17,-3.12 -150.06,43.42 -163.04,82.07 -165.91,84.18z"/>
   <path class="fil4" d="M121179.7 7642.05l427.54 -54.08c-35.62,-119.81 -116.08,-146.09 -219.09,-203.92l-119.47 147.66c-4.84,6.55 -11.29,14.67 -16.13,20.97l-54.53 65.61c-3.14,-6.13 -12.66,15.52 -18.32,23.76z"/>
  </g>
  <g style="clip-path:url(#id62)">
   <image x="81544.89" y="-12437.44" width="19896.66" height="19896.66" xlink:href="nav-logo_Images\nav-logo_ImgID63.png"/>
  </g>
  <g id="_188994473552">
   <path class="fil5" d="M118435.95 -9269.94c70.42,-56.29 21.53,-6.47 86.39,-86.95l619.55 -933.78c118.38,-155.25 177.5,-175.3 284.3,-290.68 -33.92,-46.43 -116.81,-84.34 -160.54,-221.34 164.37,78.21 197.72,82.06 300.04,192.43 76.83,82.87 137.16,156.48 262.32,122.43 44.64,-103.69 45.21,-252.02 -0.32,-365.06 -44.8,-111.26 -192.93,-96.09 -315.1,-126.54 -34.35,-154.11 -71.95,-195.6 -94.27,-372.55 -20.52,-162.8 -50.11,-309.2 -25.12,-474.13 36.46,-240.66 142.7,-526.04 252.64,-698.79 5.28,323.84 -286.64,438.41 -124.5,1199.43 80.95,379.99 131.74,181.16 338.83,349.08 104.96,85.11 237.46,907.27 -293.48,508.05 -737.7,777.67 -228,1021.41 314.51,1660.45 80.97,95.37 114.43,163.11 195.66,238.44 38.45,-133.1 101.4,-293.35 110.75,-432.7 13.36,-199.21 -65.03,-328.04 -85.75,-503.76 153.9,138.84 186.01,296.43 186.49,511.8 -30.88,-85.31 148.35,-153.99 211.67,-185.8 -42.47,139.77 -142.19,222.01 -209,347.67 -73.6,138.39 -57.84,197.95 -149.58,351.24 727.12,-219.08 923.75,-131.23 1187.85,-539.13 361.5,-558.34 177.96,-730.76 167.72,-1244.92 -2.7,-135.81 -52.09,-141.64 166.13,-141.87 29.35,327.3 42.65,684.7 65.4,1015.01 25.96,377.05 -9.92,715.95 10.54,1049.69 -87.09,916.82 457.78,1923.74 803.86,2622.35 176.96,357.21 644.18,1472.2 1127.62,1444.18 130.08,-7.54 219.88,-56.89 392.24,-59.07 150.12,-1.89 294.1,22.53 409.6,-23.13 -71.46,-123.46 -251.41,-85.48 -380.95,-167.47 276.12,-131.12 265.34,-187.52 614.6,-308.39 145.06,-50.19 140.33,-30.48 169.44,-150.03 -161.82,-10.72 -290.82,36.44 -389.57,29.11 -153.55,-11.4 -102.43,-77.86 -340.98,-20.29 -171.01,41.27 -252.47,-1.05 -413.83,50.04 -176.05,55.73 -150.71,101.56 -374.14,76.41 -386.54,-602.88 -309.13,-1888.59 -642.1,-2560.15 -472.55,-953.06 -73.11,-2100.94 -354.86,-2814.86 318.33,209.22 145.18,1086.72 144.65,1396.21l96.68 34.09c130.98,81.41 97.97,242.73 368.7,247.29 337.19,5.67 448.69,-327.06 175.99,-391.83 -130.26,245.19 66,-84.8 7.9,101.1 -40.41,129.28 -2.21,61.71 -113.74,81.33 -172.61,-192.38 44.72,-392.7 80.84,-670.29 25.75,-197.88 -2.5,-406.57 -116.35,-564.39 -66.65,-92.39 -56.11,-52.73 -110.57,-158.94 232.03,-24.99 366.56,-104.58 529.01,49.17 -72.14,190.57 -38.78,19.45 -162.07,66.14 51.82,437.9 702.21,-231.21 -117.52,-295.72 -280.36,-22.06 -451.28,-145.46 -272.8,-394.28 242.78,-32.39 167.96,69.4 296.77,182.39 95.13,83.44 247.68,120.26 373.33,55.89 -111.86,-66.53 -334.27,-73.13 -335.75,-509.03l140.28 204.32c37.24,50.12 112.54,136.37 180.22,174.16 167.84,93.71 373.45,29.5 472.8,-75.01 423.84,-445.88 -372.11,-845.18 -359.19,-322.02 96.94,-105.83 102.61,-124.99 267.71,-90.02 36.73,177.23 25.37,314.96 -166.01,326.52 -366.85,22.15 -183.25,-455.96 -663.9,-876.25 -6.8,-5.95 -14.67,-12.51 -21.41,-18.47l-68.25 -62.48c332.27,-116.68 291.34,-498.5 -224.28,-430.14 -0.31,-785.94 -909.68,-317.6 -586.96,-28.94 166.81,149.2 98.62,-88.39 101.82,-153.6 0.34,-6.74 1.19,-20.51 5.69,-29.42 418.41,-118.64 287.58,551.75 -22.84,594.57 -433.49,59.8 -285.94,-538.44 -301.27,-858.19 -46.21,-963.56 -1020.92,-772.8 -1244.06,-815.08 -186.32,-35.31 -74.81,-65.21 -223.6,-94.94 -455.69,-91.06 -503.14,608.86 -1684.86,654.33 -471.41,18.14 -1811.2,50.06 -2183.21,187.19 -147.25,304.94 87.22,782.6 236.91,993.98l868 1143.67c187.29,216.07 789.75,623.33 707.28,1300.27z"/>
   <path class="fil5" d="M115388.32 -6211.97c-416.17,-91.13 -696.56,-240.07 -1202.98,-233.46 -631.43,8.23 -1486.64,422.28 -2534.68,227.26 -492.02,-91.56 -801.51,-235.58 -1248.14,-9.24 -19.6,214.44 48.11,294.05 429.39,471.38 189.23,88.01 551.1,79.15 788.18,95.46 587.38,40.42 1043.14,-67.69 1632.19,55.84 1024.12,214.75 2499.68,764.38 3222.14,194.39l637.07 -702.2c271.62,-411.47 362.88,-933.07 113.4,-1411.05 -141.1,-270.32 -283.6,-289.44 -628.71,-161.14 -545.49,202.8 -1082.77,1047.96 -1207.86,1472.76z"/>
   <path class="fil5" d="M108650.8 -5663.59c1927.79,184.53 3299.6,1005.95 4984.07,900.88 875.77,-54.63 1773.39,287.05 2665.91,305.3 584.77,11.96 2249.77,-116.54 2494.81,-489.34 -122.58,-47.65 -385.54,-80.66 -536.09,-123.12 -277.31,-78.23 -869.03,-393.59 -1110.19,-583.69 -23.92,-18.86 -71.31,-61.93 -95.58,-79.83 -102.1,-75.32 1.88,-24.63 -134,-78.53 -115.58,197.51 -378.48,456.36 -560.14,570.57 -649.83,408.55 -2019.17,-42.79 -2884.27,-231.53 -760.68,-165.96 -1447.8,-26.35 -2200.3,-131.02 -634.73,-88.28 -1290.07,-381.4 -1985.33,-353.65 -287.62,-43.55 -526.87,-99.83 -737.34,61.66 7.09,122.86 47.02,146.11 98.45,232.3z"/>
   <path class="fil5" d="M120388.92 -7718.68c-102.5,-60.32 -82.76,-71.84 -158.32,-134.13l-534.06 -311.88c-266.34,-72.69 -729.61,-52.93 -955.27,-161.4l-277.29 -88.03c-98.33,949.93 -162.12,614.32 -750.73,646.78 -244.97,339.25 -388.81,1402.35 -165.5,1782.94 246.94,420.84 1051.42,510.6 1692.67,483.26 75.63,-246.09 429.01,-1121.25 592.08,-1277.29 129.85,-124.24 395.95,-264.96 559.55,-358.65 224.23,-128.41 398.15,-247.28 566.44,-382.05 -303.36,-23.92 -374.96,-43.61 -569.57,-199.55z"/>
   <path class="fil6" d="M118435.95 -9269.94c5.87,198.37 -186.39,592.21 145.82,808.58 262.03,170.66 252.78,82.1 159.5,135.27 225.66,108.47 688.93,88.71 955.27,161.4l534.06 311.88c75.56,62.29 55.82,73.81 158.32,134.13 143.63,4.04 876.29,398.15 1231.92,-445.41 67.39,-159.85 48.89,-145.87 118.24,-178.13 -20.46,-333.74 15.42,-672.64 -10.54,-1049.69 -22.75,-330.31 -36.05,-687.71 -65.4,-1015.01 -218.22,0.23 -168.83,6.06 -166.13,141.87 10.24,514.16 193.78,686.58 -167.72,1244.92 -264.1,407.9 -460.73,320.05 -1187.85,539.13 91.74,-153.29 75.98,-212.85 149.58,-351.24 66.81,-125.66 166.53,-207.9 209,-347.67 -63.32,31.81 -242.55,100.49 -211.67,185.8 -0.48,-215.37 -32.59,-372.96 -186.49,-511.8 20.72,175.72 99.11,304.55 85.75,503.76 -9.35,139.35 -72.3,299.6 -110.75,432.7 -81.23,-75.33 -114.69,-143.07 -195.66,-238.44 -542.51,-639.04 -1052.21,-882.78 -314.51,-1660.45 530.94,399.22 398.44,-422.94 293.48,-508.05 -207.09,-167.92 -257.88,30.91 -338.83,-349.08 -162.14,-761.02 129.78,-875.59 124.5,-1199.43 -109.94,172.75 -216.18,458.13 -252.64,698.79 -24.99,164.93 4.6,311.33 25.12,474.13 22.32,176.95 59.92,218.44 94.27,372.55 122.17,30.45 270.3,15.28 315.1,126.54 45.53,113.04 44.96,261.37 0.32,365.06 -125.16,34.05 -185.49,-39.56 -262.32,-122.43 -102.32,-110.37 -135.67,-114.22 -300.04,-192.43 43.73,137 126.62,174.91 160.54,221.34 -106.8,115.38 -165.92,135.43 -284.3,290.68l-619.55 933.78c-64.86,80.48 -15.97,30.66 -86.39,86.95z"/>
   <path class="fil1" d="M117593.69 -12002.31l972.4 839.82c57.28,37.13 371.32,141.61 458.86,179.6 -48.04,-38.78 -85.82,-59.52 -134.42,-104.81 1.94,-177.64 36.9,-293.35 234.73,-292.96 181.57,0.36 223.7,140.27 173.7,290.51 -103.71,-103.95 0.51,-67.8 -135.19,-123.36 -172.56,134.1 78.99,306.07 271.06,292.28 45.88,-289.6 -144.97,-544.99 -162.45,-837.9 -23.56,-394.84 204.43,-511.91 212.84,-839.49 -374.33,34.15 -692.25,71.68 -1014.79,223.91 -227.85,107.55 -711.25,268.14 -876.74,372.4z"/>
   <path class="fil6" d="M108650.8 -5663.59c-51.43,-86.19 -91.36,-109.44 -98.45,-232.3 210.47,-161.49 449.72,-105.21 737.34,-61.66 70.55,-53.83 56.1,-50.17 230.21,-55.92 -132.9,-162.68 -148.23,-265.32 -450.68,-344.97 -139.55,-36.75 -566.48,-160.25 -661.74,-172 74.25,139.56 180.98,116.14 325.18,198.64 46.09,26.36 46.8,27.73 72.81,50.76 -303.37,-11.72 -536.77,-153.77 -828.67,-147.45 -280.21,6.07 -556.09,165.32 -530.18,423.4l1204.18 341.5z"/>
   <path class="fil6" d="M110570.91 -5793.99c-51.43,-86.19 -91.36,-109.44 -98.45,-232.3 210.47,-161.49 449.72,-105.21 737.34,-61.66 70.55,-53.83 56.1,-50.17 230.21,-55.92 -132.9,-162.68 -148.23,-265.32 -450.68,-344.97 -139.55,-36.75 -566.48,-160.25 -661.74,-172 74.25,139.56 180.98,116.14 325.18,198.64 46.09,26.36 46.8,27.73 72.81,50.76 -303.37,-11.72 -536.77,-153.77 -828.67,-147.45 -280.21,6.07 -556.09,165.32 -530.18,423.4l1204.18 341.5z"/>
  </g>
  <g style="clip-path:url(#id63)">
   <image x="139841.76" y="-26971.74" width="2292.76" height="2292.76" xlink:href="nav-logo_Images\nav-logo_ImgID64.png"/>
  </g>
  <g style="clip-path:url(#id64)">
   <image x="139841.66" y="-36584.86" width="3209.86" height="3209.86" xlink:href="nav-logo_Images\nav-logo_ImgID65.png"/>
  </g>
  <g style="clip-path:url(#id65)">
   <image x="12982.35" y="-33137.34" width="18619.48" height="18619.48" xlink:href="nav-logo_Images\nav-logo_ImgID66.png"/>
  </g>
  <g style="clip-path:url(#id66)">
   <image x="15581.22" y="-28302.18" width="13470.96" height="8456.57" xlink:href="nav-logo_Images\nav-logo_ImgID67.png"/>
  </g>
  <g style="clip-path:url(#id67)">
   <image x="-11176.53" y="-40624.95" width="18618.2" height="18618.2" xlink:href="nav-logo_Images\nav-logo_ImgID68.png"/>
  </g>
  <g id="_188994474848">
   <path class="fil7" d="M35201.3 -880.87c-48.93,0 -93.17,-8.38 -132.72,-25.14 -38.87,-16.76 -69.71,-40.89 -92.5,-72.39 -22.79,-31.5 -34.52,-68.7 -35.19,-111.59l150.82 0c2.01,28.82 12.06,51.6 30.16,68.36 18.76,16.75 44.24,25.13 76.41,25.13 32.84,0 58.65,-7.7 77.42,-23.12 18.76,-16.09 28.15,-36.86 28.15,-62.33 0,-20.78 -6.37,-37.87 -19.1,-51.27 -12.74,-13.41 -28.83,-23.8 -48.26,-31.17 -18.77,-8.04 -44.91,-16.76 -78.43,-26.14 -45.58,-13.41 -82.78,-26.48 -111.6,-39.21 -28.15,-13.41 -52.62,-33.18 -73.39,-59.32 -20.11,-26.81 -30.17,-62.34 -30.17,-106.58 0,-41.56 10.39,-77.75 31.17,-108.58 20.78,-30.83 49.94,-54.29 87.47,-70.38 37.54,-16.76 80.44,-25.14 128.7,-25.14 72.39,0 131.03,17.76 175.93,53.29 45.59,34.85 70.73,83.79 75.41,146.79l-154.82 0c-1.35,-24.13 -11.73,-43.9 -31.17,-59.32 -18.77,-16.09 -43.9,-24.13 -75.41,-24.13 -27.48,0 -49.6,7.04 -66.36,21.12 -16.08,14.07 -24.13,34.52 -24.13,61.33 0,18.76 6.04,34.52 18.1,47.25 12.74,12.07 28.15,22.12 46.25,30.16 18.77,7.38 44.91,16.09 78.42,26.14 45.58,13.41 82.77,26.81 111.59,40.22 28.83,13.41 53.64,33.51 74.41,60.33 20.77,26.81 31.16,61.99 31.16,105.56 0,37.54 -9.71,72.38 -29.15,104.56 -19.45,32.17 -47.93,57.98 -85.46,77.41 -37.53,18.77 -82.1,28.16 -133.71,28.16zm952.49 -708.81l0 701.77 -140.76 0 0 -298.6 -300.62 0 0 298.6 -140.76 0 0 -701.77 140.76 0 0 288.55 300.62 0 0 -288.55 140.76 0zm464.31 708.81c-65.69,0 -126.02,-15.42 -180.97,-46.25 -54.98,-30.84 -98.53,-73.4 -130.71,-127.68 -32.17,-54.96 -48.26,-116.97 -48.26,-186 0,-68.37 16.09,-129.7 48.26,-183.99 32.18,-54.97 75.73,-97.87 130.71,-128.7 54.95,-30.83 115.28,-46.25 180.97,-46.25 66.36,0 126.69,15.42 180.98,46.25 54.95,30.83 98.19,73.73 129.7,128.7 32.17,54.29 48.26,115.62 48.26,183.99 0,69.03 -16.09,131.04 -48.26,186 -31.51,54.28 -74.75,96.84 -129.7,127.68 -54.98,30.83 -115.31,46.25 -180.98,46.25zm0 -125.68c42.23,0 79.43,-9.39 111.6,-28.15 32.18,-19.43 57.31,-46.91 75.41,-82.44 18.1,-35.52 27.15,-76.74 27.15,-123.66 0,-46.92 -9.05,-87.81 -27.15,-122.66 -18.1,-35.53 -43.23,-62.68 -75.41,-81.44 -32.17,-18.77 -69.37,-28.15 -111.6,-28.15 -42.22,0 -79.77,9.38 -112.6,28.15 -32.18,18.76 -57.31,45.91 -75.41,81.44 -18.1,34.85 -27.15,75.74 -27.15,122.66 0,46.92 9.05,88.14 27.15,123.66 18.1,35.53 43.23,63.01 75.41,82.44 32.83,18.76 70.38,28.15 112.6,28.15zm975.38 -365.96c0,37.53 -9.05,72.72 -27.15,105.57 -17.41,32.84 -45.24,59.32 -83.45,79.42 -37.51,20.11 -85.11,30.17 -142.77,30.17l-117.63 0 0 269.44 -140.76 0 0 -701.77 258.39 0c54.3,0 100.55,9.38 138.75,28.15 38.21,18.77 66.7,44.57 85.46,77.42 19.45,32.84 29.16,70.04 29.16,111.6zm-259.4 101.54c38.9,0 67.71,-8.71 86.47,-26.14 18.78,-18.09 28.15,-43.23 28.15,-75.4 0,-68.37 -38.21,-102.56 -114.62,-102.56l-111.6 0 0 204.1 111.6 0zm871.12 -101.54c0,37.53 -9.05,72.72 -27.15,105.57 -17.44,32.84 -45.24,59.32 -83.45,79.42 -37.54,20.11 -85.14,30.17 -142.77,30.17l-117.63 0 0 269.44 -140.76 0 0 -701.77 258.39 0c54.29,0 100.54,9.38 138.75,28.15 38.2,18.77 66.67,44.57 85.46,77.42 19.42,32.84 29.16,70.04 29.16,111.6zm-259.4 101.54c38.87,0 67.68,-8.71 86.46,-26.14 18.76,-18.09 28.16,-43.23 28.16,-75.4 0,-68.37 -38.21,-102.56 -114.62,-102.56l-111.6 0 0 204.1 111.6 0zm500.09 -205.1l0 175.95 236.27 0 0 111.6 -236.27 0 0 185.99 266.43 0 0 114.62 -407.19 0 0 -702.78 407.19 0 0 114.62 -266.43 0zm756.27 588.16l-154.83 -273.47 -66.36 0 0 273.47 -140.76 0 0 -701.77 263.42 0c54.29,0 100.54,9.72 138.75,29.15 38.21,18.77 66.7,44.58 85.46,77.42 19.45,32.17 29.16,68.37 29.16,108.59 0,46.25 -13.39,88.14 -40.22,125.67 -26.8,36.87 -66.67,62.34 -119.64,76.42l167.9 284.52 -162.88 0zm-221.19 -379.03l117.63 0c38.21,0 66.71,-9.05 85.47,-27.15 18.78,-18.77 28.15,-44.57 28.15,-77.42 0,-32.17 -9.37,-56.97 -28.15,-74.4 -18.76,-18.1 -47.26,-27.14 -85.47,-27.14l-117.63 0 0 206.11z"/>
   <path class="fil8" d="M35176 -457.16l-128.69 0 -23.71 65.62 -40.64 0 106.68 -293.37 44.45 0 106.26 293.37 -40.64 0 -23.71 -65.62zm-11.01 -31.32l-53.34 -149.02 -53.34 149.02 106.68 0zm107.46 -19.9c0,-23.71 4.8,-44.45 14.39,-62.23 9.6,-18.06 22.72,-32.03 39.36,-41.91 16.94,-9.88 35.84,-14.82 56.73,-14.82 18.06,0 34.86,4.24 50.37,12.7 15.53,8.19 27.38,19.05 35.56,32.6l0 -122.77 38.95 0 0 313.27 -38.95 0 0 -43.6c-7.62,13.83 -18.89,25.26 -33.87,34.29 -14.95,8.75 -32.44,13.12 -52.48,13.12 -20.61,0 -39.37,-5.08 -56.31,-15.24 -16.64,-10.16 -29.76,-24.41 -39.36,-42.76 -9.59,-18.34 -14.39,-39.23 -14.39,-62.65zm196.41 0.42c0,-17.49 -3.52,-32.73 -10.58,-45.72 -7.04,-12.98 -16.65,-22.86 -28.79,-29.63 -11.85,-7.06 -24.98,-10.58 -39.36,-10.58 -14.4,0 -27.52,3.38 -39.37,10.16 -11.86,6.77 -21.31,16.65 -28.37,29.63 -7.05,12.98 -10.57,28.22 -10.57,45.72 0,17.78 3.52,33.3 10.57,46.57 7.06,12.98 16.51,23 28.37,30.05 11.85,6.78 24.97,10.16 39.37,10.16 14.38,0 27.51,-3.38 39.36,-10.16 12.14,-7.05 21.75,-17.07 28.79,-30.05 7.06,-13.27 10.58,-28.65 10.58,-46.15zm383.04 -119.8c18.04,0 34.13,3.81 48.26,11.43 14.1,7.34 25.24,18.49 33.44,33.44 8.18,14.96 12.28,33.16 12.28,54.61l0 136.74 -38.1 0 0 -131.23c0,-23.15 -5.8,-40.78 -17.36,-52.92 -11.3,-12.42 -26.67,-18.63 -46.14,-18.63 -20.06,0 -35.99,6.49 -47.84,19.48 -11.85,12.7 -17.78,31.18 -17.78,55.45l0 127.85 -38.1 0 0 -131.23c0,-23.15 -5.79,-40.78 -17.36,-52.92 -11.29,-12.42 -26.67,-18.63 -46.14,-18.63 -20.06,0 -35.98,6.49 -47.84,19.48 -11.85,12.7 -17.78,31.18 -17.78,55.45l0 127.85 -38.52 0 0 -231.99 38.52 0 0 33.45c7.62,-12.14 17.78,-21.45 30.48,-27.94 12.97,-6.49 27.23,-9.74 42.76,-9.74 19.47,0 36.67,4.37 51.65,13.12 14.95,8.75 26.08,21.59 33.44,38.53 6.48,-16.37 17.2,-29.07 32.17,-38.1 14.95,-9.03 31.59,-13.55 49.96,-13.55zm177.06 -33.44c-7.33,0 -13.55,-2.54 -18.63,-7.62 -5.08,-5.08 -7.62,-11.29 -7.62,-18.63 0,-7.34 2.54,-13.55 7.62,-18.63 5.08,-5.08 11.3,-7.62 18.63,-7.62 7.06,0 12.99,2.54 17.78,7.62 5.08,5.08 7.62,11.29 7.62,18.63 0,7.34 -2.54,13.55 -7.62,18.63 -4.79,5.08 -10.72,7.62 -17.78,7.62zm18.62 37.67l0 231.99 -38.52 0 0 -231.99 38.52 0zm178.7 -4.23c28.21,0 51.07,8.61 68.58,25.82 17.49,16.94 26.25,41.49 26.25,73.66l0 136.74 -38.1 0 0 -131.23c0,-23.15 -5.8,-40.78 -17.36,-52.92 -11.59,-12.42 -27.38,-18.63 -47.41,-18.63 -20.32,0 -36.57,6.35 -48.69,19.05 -11.85,12.7 -17.78,31.19 -17.78,55.46l0 128.27 -38.52 0 0 -231.99 38.52 0 0 33.02c7.62,-11.85 17.92,-21.02 30.91,-27.51 13.25,-6.49 27.78,-9.74 43.6,-9.74zm467.89 27.52c0,24.55 -8.47,45.01 -25.4,61.38 -16.67,16.09 -42.2,24.13 -76.62,24.13l-56.73 0 0 123.19 -38.52 0 0 -295.06 95.25 0c33.28,0 58.55,8.04 75.77,24.13 17.49,16.08 26.25,36.83 26.25,62.23zm-102.02 53.76c21.43,0 37.25,-4.66 47.41,-13.97 10.16,-9.31 15.24,-22.58 15.24,-39.79 0,-36.41 -20.9,-54.61 -62.65,-54.61l-56.73 0 0 108.37 56.73 0zm135.49 38.1c0,-23.71 4.82,-44.45 14.39,-62.23 9.61,-18.06 22.73,-32.03 39.37,-41.91 16.94,-9.88 35.72,-14.82 56.31,-14.82 20.32,0 37.96,4.38 52.91,13.13 14.98,8.75 26.12,19.75 33.45,33.02l0 -42.34 38.94 0 0 231.99 -38.94 0 0 -43.18c-7.62,13.55 -19.05,24.84 -34.29,33.87 -14.95,8.75 -32.44,13.12 -52.5,13.12 -20.58,0 -39.21,-5.08 -55.88,-15.24 -16.64,-10.16 -29.76,-24.41 -39.37,-42.76 -9.57,-18.34 -14.39,-39.23 -14.39,-62.65zm196.43 0.42c0,-17.49 -3.52,-32.73 -10.59,-45.72 -7.03,-12.98 -16.64,-22.86 -28.78,-29.63 -11.86,-7.06 -24.98,-10.58 -39.37,-10.58 -14.4,0 -27.52,3.38 -39.37,10.16 -11.86,6.77 -21.3,16.65 -28.37,29.63 -7.03,12.98 -10.58,28.22 -10.58,45.72 0,17.78 3.55,33.3 10.58,46.57 7.07,12.98 16.51,23 28.37,30.05 11.85,6.78 24.97,10.16 39.37,10.16 14.39,0 27.51,-3.38 39.37,-10.16 12.14,-7.05 21.75,-17.07 28.78,-30.05 7.07,-13.27 10.59,-28.65 10.59,-46.15zm217.08 -119.8c28.2,0 51.06,8.61 68.58,25.82 17.49,16.94 26.24,41.49 26.24,73.66l0 136.74 -38.1 0 0 -131.23c0,-23.15 -5.79,-40.78 -17.35,-52.92 -11.59,-12.42 -27.39,-18.63 -47.42,-18.63 -20.32,0 -36.56,6.35 -48.68,19.05 -11.85,12.7 -17.78,31.19 -17.78,55.46l0 128.27 -38.52 0 0 -231.99 38.52 0 0 33.02c7.62,-11.85 17.91,-21.02 30.9,-27.51 13.26,-6.49 27.79,-9.74 43.61,-9.74zm369.41 111.34c0,7.33 -0.42,15.1 -1.27,23.28l-185.42 0c1.4,22.86 9.18,40.78 23.28,53.76 14.4,12.7 31.75,19.05 52.07,19.05 16.64,0 30.48,-3.81 41.49,-11.43 11.3,-7.9 19.18,-18.34 23.71,-31.32l41.48 0c-6.22,22.29 -18.62,40.5 -37.25,54.61 -18.63,13.83 -41.78,20.74 -69.43,20.74 -22.01,0 -41.78,-4.94 -59.26,-14.82 -17.23,-9.87 -30.78,-23.84 -40.64,-41.91 -9.87,-18.34 -14.82,-39.51 -14.82,-63.5 0,-23.99 4.79,-45.01 14.39,-63.07 9.61,-18.07 22.99,-31.89 40.22,-41.49 17.49,-9.88 37.54,-14.82 60.11,-14.82 22.02,0 41.49,4.8 58.42,14.4 16.94,9.59 29.93,22.86 38.95,39.79 9.31,16.65 13.97,35.56 13.97,56.73zm-39.79 -8.05c0,-14.67 -3.26,-27.23 -9.74,-37.67 -6.48,-10.73 -15.37,-18.77 -26.67,-24.13 -11.01,-5.65 -23.28,-8.47 -36.83,-8.47 -19.47,0 -36.12,6.21 -49.95,18.63 -13.55,12.41 -21.3,29.63 -23.29,51.64l146.48 0zm129.17 -180.34l0 313.27 -38.53 0 0 -313.27 38.53 0z"/>
   <g>
    <g style="clip-path:url(#id68)">
     <image x="32746.51" y="-1909.42" width="1719.78" height="1719.78" xlink:href="nav-logo_Images\nav-logo_ImgID69.png"/>
    </g>
   </g>
  </g>
  <g style="clip-path:url(#id69)">
   <image x="40859.23" y="-2097.39" width="6618.51" height="1719.8" xlink:href="nav-logo_Images\nav-logo_ImgID70.png"/>
  </g>
 </g>
</svg>
